<svg id="svg" version="1.1" xmlns="http://www.w3.org/2000/svg" xmlns:xlink="http://www.w3.org/1999/xlink" width="400" height="447.76119402985074" viewBox="0, 0, 400,447.76119402985074"><g id="svgg"><path id="path0" d="M34.762 83.605 C 32.483 83.991,31.504 84.585,30.547 86.167 C 29.430 88.011,29.203 412.164,30.316 415.367 C 31.704 419.362,27.034 419.000,77.129 419.000 C 126.331 419.000,122.698 419.231,124.284 416.000 L 125.167 414.200 125.184 381.700 C 125.197 355.961,125.096 349.199,124.700 349.194 C 124.334 349.189,124.346 349.095,124.745 348.842 C 125.062 348.642,125.118 348.435,124.880 348.348 C 124.654 348.267,123.509 346.580,122.335 344.600 L 120.200 341.000 120.090 319.692 L 119.980 298.384 120.972 297.392 L 121.964 296.400 191.682 296.398 C 238.424 296.396,261.890 296.259,262.888 295.982 C 265.773 295.181,265.600 297.336,265.600 262.293 L 265.600 230.764 264.618 229.782 L 263.636 228.800 194.118 228.790 C 123.010 228.781,121.982 228.758,120.700 227.175 C 119.840 226.114,119.595 159.726,120.444 157.863 C 121.322 155.936,118.618 156.000,198.593 156.000 C 277.338 156.000,275.835 156.034,277.022 154.223 C 277.831 152.987,278.773 92.232,278.013 90.234 C 277.108 87.854,283.590 88.000,179.069 88.000 C 73.475 88.000,79.951 88.133,78.721 85.945 C 78.243 85.095,77.706 84.400,77.526 84.400 C 77.347 84.400,77.200 84.130,77.200 83.800 C 77.200 83.136,38.584 82.958,34.762 83.605 " stroke="none" fill="#fcfcfc" fill-rule="evenodd"></path><path id="path1" d="M195.800 28.824 C 194.260 28.987,189.940 29.323,186.200 29.571 C 182.460 29.818,178.050 30.272,176.400 30.579 C 174.750 30.887,172.388 31.241,171.152 31.366 C 166.379 31.851,148.676 36.833,138.800 40.470 C 125.535 45.355,107.322 55.756,96.555 64.593 C 95.211 65.697,93.002 67.475,91.648 68.544 C 88.120 71.330,76.259 82.953,76.770 83.123 C 77.007 83.202,77.200 83.522,77.200 83.833 C 77.200 84.145,77.347 84.400,77.526 84.400 C 77.706 84.400,78.243 85.095,78.721 85.945 C 79.951 88.133,73.475 88.000,179.069 88.000 C 283.590 88.000,277.108 87.854,278.013 90.234 C 278.773 92.232,277.831 152.987,277.022 154.223 C 275.835 156.034,277.338 156.000,198.593 156.000 C 118.618 156.000,121.322 155.936,120.444 157.863 C 119.595 159.726,119.840 226.114,120.700 227.175 C 121.982 228.758,123.010 228.781,194.118 228.790 L 263.636 228.800 264.618 229.782 L 265.600 230.764 265.600 262.293 C 265.600 297.336,265.773 295.181,262.888 295.982 C 261.890 296.259,238.424 296.396,191.682 296.398 L 121.964 296.400 120.972 297.392 L 119.980 298.384 120.090 319.692 L 120.200 341.000 122.339 344.600 C 123.516 346.580,124.686 348.332,124.939 348.494 C 125.260 348.698,125.228 348.790,124.835 348.794 C 124.525 348.797,126.102 349.695,128.340 350.790 C 138.566 355.790,161.650 363.197,170.000 364.157 C 171.210 364.296,173.730 364.666,175.600 364.978 C 177.470 365.291,181.070 365.741,183.600 365.978 C 186.130 366.216,189.910 366.606,192.000 366.846 C 196.280 367.337,210.400 367.059,214.200 366.409 C 215.520 366.183,218.850 365.826,221.600 365.615 C 249.311 363.493,288.874 346.917,308.202 329.329 C 308.643 328.928,310.269 327.589,311.815 326.353 C 318.398 321.091,330.978 307.679,336.501 300.032 C 348.509 283.409,354.521 272.066,360.474 254.800 C 363.726 245.369,367.200 232.985,367.200 230.824 C 367.200 230.183,367.560 227.832,368.000 225.600 C 368.440 223.368,368.800 220.465,368.800 219.150 C 368.800 217.834,369.115 215.462,369.500 213.879 C 370.516 209.702,370.502 186.532,369.482 181.917 C 369.107 180.221,368.800 177.566,368.800 176.016 C 368.800 172.388,366.547 160.408,364.886 155.200 C 364.641 154.430,364.054 152.450,363.583 150.800 C 350.408 104.670,319.888 67.836,276.986 46.290 C 264.492 40.015,240.679 32.449,229.588 31.231 C 227.712 31.025,225.372 30.664,224.388 30.430 C 223.405 30.196,219.900 29.814,216.600 29.581 C 213.300 29.349,209.340 28.997,207.800 28.800 C 204.571 28.386,199.825 28.396,195.800 28.824 " stroke="none" fill="#c4140c" fill-rule="evenodd"></path></g></svg>